<svg aria-hidden="true" style="position: absolute; width: 0; height: 0; overflow: hidden;" version="1.1" xmlns="http://www.w3.org/2000/svg" xmlns:xlink="http://www.w3.org/1999/xlink">
<defs>
<symbol id="icon-arrow_back" viewBox="0 0 32 32">
<path stroke-linejoin="miter" stroke-linecap="butt" stroke-miterlimit="4" stroke-width="1.3333" d="M16.010 6.249c0.114 0 0.212 0.035 0.322 0.145 0.11 0.115 0.145 0.217 0.145 0.332-0 0.116-0.035 0.214-0.145 0.324l-8.482 8.482h17.88c0.162 0 0.262 0.047 0.348 0.132 0.083 0.082 0.129 0.177 0.129 0.337s-0.046 0.255-0.129 0.337c-0.085 0.084-0.186 0.131-0.348 0.132h-17.88l8.474 8.473c0.11 0.11 0.147 0.212 0.148 0.335v0.001c0.001 0.089-0.019 0.167-0.074 0.246l-0.069 0.082c-0.107 0.108-0.204 0.143-0.323 0.142-0.126-0.001-0.23-0.041-0.341-0.151l-9.264-9.264c-0.071-0.072-0.105-0.128-0.121-0.167v-0.001c-0.020-0.048-0.031-0.102-0.031-0.165s0.012-0.116 0.031-0.163v-0.001c0.016-0.038 0.050-0.095 0.121-0.167l9.267-9.267c0.121-0.116 0.227-0.152 0.342-0.152z"></path>
</symbol>
<symbol id="icon-arrow_forward" viewBox="0 0 32 32">
<path stroke-linejoin="miter" stroke-linecap="butt" stroke-miterlimit="4" stroke-width="1.3333" d="M15.993 6.253c0.095 0.001 0.177 0.023 0.259 0.081l0.082 0.070 9.264 9.264c0.071 0.072 0.105 0.128 0.121 0.167v0.001c0.020 0.048 0.031 0.102 0.031 0.165s-0.012 0.116-0.031 0.163v0.001c-0.016 0.038-0.050 0.094-0.121 0.167l-9.272 9.264c-0.122 0.12-0.227 0.155-0.337 0.155-0.108-0-0.204-0.033-0.315-0.147l-0.007-0.007-0.069-0.081c-0.056-0.079-0.075-0.157-0.075-0.243s0.020-0.163 0.075-0.242l0.069-0.081 8.482-8.482h-17.88c-0.163-0-0.259-0.047-0.34-0.128h-0.001c-0.081-0.081-0.128-0.179-0.128-0.341s0.046-0.26 0.128-0.341h0.001c0.081-0.081 0.177-0.127 0.34-0.128h17.88l-8.474-8.474c-0.082-0.082-0.124-0.16-0.141-0.246l-0.008-0.090c-0.001-0.12 0.034-0.218 0.141-0.326l0.001-0.001c0.107-0.107 0.205-0.143 0.324-0.142z"></path>
</symbol>
<symbol id="icon-bookmark" viewBox="0 0 32 32">
<path d="M16 24.223l-6.358 2.72c-0.757 0.326-1.475 0.265-2.155-0.184s-1.020-1.084-1.020-1.905v-18.95c0-0.616 0.225-1.149 0.676-1.601s0.982-0.678 1.595-0.678h14.523c0.616 0 1.149 0.226 1.601 0.678s0.678 0.985 0.678 1.601v18.95c0 0.821-0.341 1.456-1.024 1.905s-1.402 0.51-2.159 0.184l-6.358-2.72zM16 21.794l7.262 3.061v-18.95h-14.523v18.95l7.262-3.061zM16 5.905v0z"></path>
</symbol>
<symbol id="icon-chevron_left" viewBox="0 0 32 32">
<path stroke-linejoin="miter" stroke-linecap="butt" stroke-miterlimit="4" stroke-width="1.3333" d="M18.716 8.865c0.134 0 0.237 0.041 0.341 0.145s0.145 0.207 0.145 0.341-0.040 0.237-0.145 0.341l-6.276 6.276 6.276 6.275c0.104 0.104 0.133 0.193 0.129 0.301-0.005 0.125-0.047 0.233-0.161 0.348-0.104 0.104-0.207 0.146-0.341 0.146s-0.237-0.042-0.341-0.146l-6.592-6.591c-0.036-0.036-0.063-0.069-0.082-0.096l-0.039-0.070c-0.020-0.047-0.031-0.101-0.031-0.165 0-0.032 0.002-0.063 0.008-0.090l0.023-0.077c0.016-0.038 0.049-0.094 0.121-0.167l6.626-6.625c0.104-0.104 0.206-0.144 0.34-0.145z"></path>
</symbol>
<symbol id="icon-chevron_right" viewBox="0 0 32 32">
<path stroke-linejoin="miter" stroke-linecap="butt" stroke-miterlimit="4" stroke-width="1.3333" d="M12.516 8.897c0.134 0 0.237 0.041 0.341 0.145l6.592 6.592c0.072 0.072 0.105 0.128 0.121 0.165v0.001c0.020 0.047 0.031 0.1 0.031 0.165s-0.012 0.118-0.031 0.165v0.001c-0.016 0.037-0.049 0.093-0.121 0.165l-6.625 6.625c-0.104 0.104-0.193 0.133-0.301 0.129-0.125-0.005-0.233-0.047-0.348-0.161-0.104-0.104-0.146-0.207-0.146-0.341s0.042-0.237 0.146-0.341l6.242-6.242-6.276-6.276c-0.104-0.104-0.133-0.192-0.129-0.299 0.005-0.126 0.048-0.234 0.163-0.349 0.104-0.104 0.206-0.144 0.34-0.145z"></path>
</symbol>
<symbol id="icon-close" viewBox="0 0 32 32">
<path stroke-linejoin="miter" stroke-linecap="butt" stroke-miterlimit="4" stroke-width="1.3333" d="M23.466 7.9c0.219 0 0.355 0.065 0.462 0.172s0.172 0.242 0.172 0.461c0 0.219-0.065 0.355-0.172 0.462l-7.005 7.005 7.005 7.004c0.107 0.107 0.172 0.243 0.172 0.462s-0.065 0.355-0.172 0.462-0.243 0.172-0.462 0.172c-0.219-0-0.355-0.065-0.462-0.172l-7.004-7.005-7.005 7.005c-0.107 0.107-0.243 0.172-0.462 0.172s-0.354-0.065-0.461-0.172c-0.107-0.107-0.172-0.243-0.172-0.462s0.065-0.355 0.172-0.462l7.004-7.004-7.004-7.005c-0.107-0.107-0.172-0.243-0.172-0.462s0.065-0.354 0.172-0.461 0.242-0.172 0.461-0.172c0.219 0 0.355 0.065 0.462 0.172l7.005 7.004 7.004-7.004c0.107-0.107 0.243-0.172 0.462-0.172z"></path>
</symbol>
<symbol id="icon-communication" viewBox="0 0 32 32">
<path d="M1.15 21.271v-0.569c0-1.243 0.618-2.059 1.853-2.45s2.329-0.586 3.283-0.586c0.954 0 2.048 0.195 3.283 0.584s1.853 1.207 1.853 2.451v0.569h-10.271zM6.284 15.881c-0.725 0-1.345-0.259-1.861-0.776s-0.773-1.14-0.773-1.866 0.258-1.348 0.775-1.863c0.516-0.515 1.137-0.773 1.862-0.773s1.345 0.259 1.861 0.776c0.516 0.517 0.773 1.139 0.773 1.864s-0.258 1.346-0.775 1.864c-0.516 0.517-1.137 0.776-1.862 0.776zM13.244 17.88c-0.255 0-0.466-0.080-0.632-0.24s-0.249-0.365-0.249-0.616c0-0.125 0.083-0.342 0.249-0.65 0.172-0.244 0.309-0.5 0.409-0.767s0.15-0.545 0.15-0.834c0-0.289-0.050-0.575-0.15-0.858s-0.237-0.532-0.411-0.749c-0.072-0.097-0.131-0.198-0.177-0.303s-0.069-0.216-0.069-0.333c0-0.254 0.083-0.464 0.25-0.629s0.377-0.248 0.631-0.248c0.112 0 0.228 0.018 0.346 0.054s0.211 0.098 0.278 0.187c0.388 0.405 0.673 0.856 0.853 1.353s0.271 1.006 0.271 1.526c0 0.516-0.097 1.035-0.291 1.556s-0.48 0.967-0.856 1.34c-0.089 0.089-0.182 0.146-0.278 0.171s-0.204 0.038-0.322 0.038zM15.783 20.415c-0.26 0-0.471-0.084-0.633-0.251s-0.243-0.379-0.243-0.635c0-0.118 0.022-0.228 0.065-0.33s0.101-0.201 0.173-0.296c0.546-0.639 0.951-1.308 1.215-2.005s0.395-1.405 0.395-2.125-0.132-1.434-0.395-2.144c-0.264-0.71-0.669-1.376-1.216-1.998-0.071-0.095-0.129-0.192-0.172-0.291s-0.065-0.211-0.065-0.335c0-0.258 0.083-0.469 0.25-0.633s0.377-0.246 0.632-0.246c0.13 0 0.252 0.030 0.363 0.091s0.214 0.141 0.308 0.242c0.695 0.8 1.215 1.649 1.558 2.547s0.516 1.819 0.516 2.764c0 0.945-0.172 1.866-0.516 2.764s-0.863 1.747-1.558 2.547c-0.087 0.111-0.187 0.194-0.299 0.25s-0.238 0.083-0.378 0.083zM20.579 21.271v-0.569c0-1.245 0.617-2.062 1.853-2.451s2.329-0.584 3.283-0.584c0.954 0 2.048 0.195 3.283 0.586s1.853 1.207 1.853 2.45v0.569h-10.271zM25.713 15.881c-0.725 0-1.345-0.259-1.861-0.776s-0.773-1.14-0.773-1.866 0.258-1.348 0.775-1.863c0.516-0.515 1.137-0.773 1.862-0.773s1.345 0.259 1.861 0.776c0.516 0.517 0.773 1.139 0.773 1.864s-0.258 1.346-0.775 1.864c-0.516 0.517-1.137 0.776-1.862 0.776z"></path>
</symbol>
<symbol id="icon-edit" viewBox="0 0 32 32">
<path d="M6.064 25.928h1.475l15.327-15.294-1.459-1.467-15.343 15.302v1.459zM4.936 28.199c-0.326 0-0.597-0.108-0.812-0.323s-0.323-0.486-0.323-0.812v-2.561c0-0.304 0.062-0.601 0.187-0.891s0.289-0.537 0.493-0.742l18.471-18.446c0.183-0.188 0.404-0.335 0.661-0.441s0.525-0.158 0.803-0.158c0.255 0 0.51 0.053 0.765 0.158s0.491 0.25 0.707 0.433l1.73 1.706c0.205 0.216 0.355 0.453 0.449 0.711s0.141 0.517 0.141 0.777c0 0.26-0.053 0.524-0.158 0.79s-0.25 0.494-0.433 0.682l-18.471 18.438c-0.21 0.204-0.458 0.369-0.746 0.493s-0.583 0.187-0.887 0.187h-2.577zM22.14 9.893l-0.733-0.725 1.459 1.467-0.725-0.741z"></path>
</symbol>
<symbol id="icon-Facebook" viewBox="0 0 32 32">
<path d="M29.333 16.405c0-7.409-5.969-13.415-13.333-13.415s-13.333 6.006-13.333 13.415c0 6.696 4.876 12.245 11.25 13.252v-9.374h-3.385v-3.878h3.385v-2.955c0-3.362 1.991-5.219 5.036-5.219 1.459 0 2.985 0.262 2.985 0.262v3.301h-1.681c-1.656 0-2.173 1.034-2.173 2.095v2.516h3.698l-0.591 3.878h-3.107v9.374c6.374-1.006 11.25-6.556 11.25-13.252z"></path>
</symbol>
<symbol id="icon-filter_alt" viewBox="0 0 32 32">
<path d="M14.666 26.866c-0.431 0-0.794-0.148-1.089-0.443s-0.443-0.658-0.443-1.089v-7.928l-7.919-10.119c-0.364-0.447-0.418-0.919-0.161-1.415s0.661-0.745 1.213-0.745h19.467c0.552 0 0.956 0.248 1.213 0.745s0.205 0.968-0.153 1.415l-7.919 10.119v7.992c0 0.42-0.141 0.77-0.423 1.050s-0.633 0.419-1.054 0.419h-2.73zM16 17.347l7.849-9.942h-15.689l7.841 9.942z"></path>
</symbol>
<symbol id="icon-Instagram" viewBox="0 0 32 32">
<path d="M16.007 6.488c3.206 0 3.585 0.014 4.846 0.071 1.172 0.052 1.804 0.248 2.227 0.412 0.558 0.216 0.961 0.478 1.378 0.895 0.422 0.422 0.679 0.82 0.9 1.378 0.164 0.422 0.361 1.059 0.412 2.226 0.056 1.266 0.071 1.645 0.071 4.847s-0.014 3.585-0.071 4.847c-0.052 1.172-0.248 1.804-0.412 2.227-0.216 0.558-0.478 0.961-0.895 1.377-0.422 0.422-0.82 0.679-1.377 0.9-0.422 0.164-1.060 0.361-2.227 0.412-1.266 0.056-1.645 0.071-4.847 0.071s-3.585-0.014-4.847-0.071c-1.172-0.052-1.804-0.248-2.226-0.412-0.558-0.216-0.961-0.478-1.378-0.895-0.422-0.422-0.679-0.82-0.9-1.378-0.164-0.422-0.361-1.060-0.412-2.226-0.056-1.266-0.071-1.645-0.071-4.847s0.014-3.585 0.071-4.847c0.052-1.172 0.248-1.804 0.412-2.226 0.216-0.558 0.478-0.961 0.895-1.378 0.422-0.422 0.82-0.679 1.378-0.9 0.422-0.164 1.059-0.361 2.226-0.412 1.261-0.056 1.641-0.071 4.847-0.071h0.001zM16.007 4.328c-3.258 0-3.665 0.014-4.945 0.071-1.275 0.056-2.151 0.262-2.91 0.558-0.792 0.309-1.462 0.717-2.127 1.387-0.67 0.666-1.078 1.336-1.387 2.123-0.295 0.764-0.502 1.636-0.558 2.91-0.056 1.285-0.071 1.692-0.071 4.949s0.014 3.665 0.071 4.945c0.056 1.275 0.262 2.151 0.558 2.91 0.31 0.792 0.717 1.462 1.387 2.127 0.665 0.665 1.336 1.078 2.123 1.383 0.764 0.295 1.636 0.502 2.91 0.558 1.279 0.056 1.687 0.071 4.945 0.071s3.665-0.014 4.945-0.071c1.275-0.056 2.151-0.262 2.91-0.558 0.787-0.305 1.458-0.717 2.123-1.383s1.078-1.336 1.383-2.123c0.295-0.764 0.502-1.635 0.558-2.91 0.056-1.279 0.070-1.687 0.070-4.945s-0.014-3.665-0.070-4.945c-0.056-1.275-0.263-2.151-0.558-2.91-0.295-0.797-0.703-1.467-1.373-2.133-0.665-0.665-1.336-1.078-2.123-1.383-0.764-0.295-1.636-0.502-2.91-0.558-1.284-0.061-1.692-0.075-4.949-0.075l-0.001 0.001z"></path>
<path d="M16.007 10.163c-3.402 0-6.163 2.76-6.163 6.163s2.76 6.163 6.163 6.163c3.403 0 6.163-2.76 6.163-6.163s-2.76-6.163-6.163-6.163zM16.007 20.324c-2.208 0-3.998-1.79-3.998-3.998s1.79-3.998 3.998-3.998c2.208 0 3.998 1.79 3.998 3.998s-1.79 3.998-3.998 3.998z"></path>
<path d="M23.851 9.919c0 0.795-0.644 1.439-1.439 1.439s-1.439-0.644-1.439-1.439 0.644-1.439 1.439-1.439c0.795 0 1.439 0.644 1.439 1.439z"></path>
</symbol>
<symbol id="icon-keyboard_arrow_down" viewBox="0 0 32 32">
<path stroke-linejoin="miter" stroke-linecap="butt" stroke-miterlimit="4" stroke-width="1.3333" d="M9.449 12.031c0.134 0 0.237 0.041 0.341 0.145l6.208 6.244 6.243-6.244c0.104-0.103 0.192-0.133 0.299-0.129 0.126 0.005 0.234 0.048 0.349 0.163 0.104 0.104 0.145 0.207 0.145 0.341s-0.041 0.236-0.145 0.34l-6.559 6.559c-0.072 0.072-0.129 0.107-0.167 0.122-0.047 0.020-0.101 0.031-0.165 0.031-0.033 0-0.062-0.004-0.090-0.009l-0.077-0.022-0.070-0.040c-0.028-0.019-0.059-0.046-0.095-0.082l-6.592-6.591c-0.098-0.098-0.133-0.191-0.129-0.318 0.005-0.143 0.053-0.255 0.163-0.365 0.104-0.104 0.206-0.144 0.34-0.145z"></path>
</symbol>
<symbol id="icon-keyboard_arrow_up" viewBox="0 0 32 32">
<path stroke-linejoin="miter" stroke-linecap="butt" stroke-miterlimit="4" stroke-width="1.3333" d="M15.999 11.605c0.125 0 0.227 0.038 0.333 0.145l6.591 6.592c0.109 0.109 0.145 0.208 0.145 0.324s-0.035 0.215-0.145 0.324c-0.104 0.104-0.207 0.145-0.341 0.145s-0.236-0.041-0.34-0.145l-0.001-0.001-6.244-6.207-6.241 6.241c-0.104 0.104-0.192 0.133-0.299 0.129-0.126-0.005-0.234-0.047-0.349-0.161-0.104-0.104-0.145-0.207-0.145-0.341s0.040-0.237 0.145-0.341l6.559-6.559c0.107-0.107 0.207-0.144 0.332-0.145z"></path>
</symbol>
<symbol id="icon-logout" viewBox="0 0 32 32">
<path d="M6.072 28.199c-0.613 0-1.145-0.225-1.595-0.676s-0.676-0.982-0.676-1.595v-19.857c0-0.616 0.225-1.149 0.676-1.601s0.982-0.678 1.595-0.678h8.807c0.321 0 0.59 0.111 0.808 0.334s0.327 0.495 0.327 0.816c0 0.322-0.109 0.59-0.327 0.806s-0.487 0.323-0.808 0.323h-8.807v19.857h8.807c0.321 0 0.59 0.11 0.808 0.329s0.327 0.49 0.327 0.812c0 0.322-0.109 0.591-0.327 0.806s-0.487 0.323-0.808 0.323h-8.807zM23.856 17.136h-10.768c-0.32 0-0.59-0.11-0.808-0.329s-0.327-0.49-0.327-0.812c0-0.322 0.109-0.591 0.327-0.806s0.488-0.323 0.808-0.323h10.701l-2.564-2.564c-0.227-0.228-0.334-0.495-0.323-0.8s0.13-0.571 0.357-0.795c0.226-0.229 0.496-0.342 0.81-0.34s0.585 0.117 0.815 0.344l4.529 4.529c0.221 0.228 0.332 0.494 0.332 0.797s-0.111 0.568-0.332 0.794l-4.496 4.496c-0.222 0.226-0.486 0.335-0.792 0.327s-0.577-0.126-0.812-0.352c-0.218-0.227-0.328-0.497-0.331-0.811s0.112-0.586 0.344-0.813l2.531-2.539z"></path>
</symbol>
<symbol id="icon-map_search" viewBox="0 0 32 32">
<path d="M5.738 27.458c-0.447 0.226-0.882 0.209-1.304-0.053s-0.634-0.652-0.634-1.171v-18.6c0-0.331 0.095-0.627 0.286-0.886s0.44-0.45 0.75-0.572l6.043-2.125c0.249-0.094 0.5-0.136 0.754-0.125s0.505 0.053 0.754 0.125l8.012 2.809 5.862-2.351c0.447-0.204 0.883-0.181 1.308 0.070s0.638 0.636 0.638 1.155v11.377c0 0.332-0.109 0.599-0.327 0.804s-0.49 0.307-0.816 0.307c-0.326 0-0.597-0.108-0.812-0.323s-0.323-0.489-0.323-0.82v-10.106l-4.662 1.776v5.614c0 0.289-0.094 0.528-0.283 0.717s-0.428 0.283-0.717 0.283c-0.289 0-0.528-0.094-0.717-0.283s-0.283-0.428-0.283-0.717v-5.614l-6.533-2.2v16.959c0 0.354-0.095 0.676-0.286 0.966s-0.449 0.499-0.775 0.626l-5.934 2.362zM6.072 24.988l4.662-1.776v-16.666l-4.662 1.543v16.899zM21.936 24.846c0.807 0 1.488-0.281 2.042-0.843s0.828-1.233 0.823-2.014c-0.005-0.807-0.282-1.486-0.831-2.038s-1.227-0.827-2.034-0.827c-0.807 0-1.485 0.276-2.034 0.827s-0.823 1.231-0.823 2.038c0 0.807 0.274 1.485 0.823 2.034s1.227 0.823 2.034 0.823zM21.936 27.125c-1.415 0-2.625-0.502-3.629-1.507s-1.507-2.214-1.507-3.629c0-1.437 0.502-2.654 1.507-3.65s2.214-1.494 3.629-1.494c1.437 0 2.654 0.498 3.649 1.494s1.494 2.213 1.494 3.65c0 0.501-0.068 0.978-0.205 1.431s-0.333 0.877-0.589 1.272l2.645 2.654c0.205 0.204 0.308 0.447 0.311 0.729s-0.101 0.525-0.311 0.729c-0.199 0.204-0.439 0.306-0.721 0.306s-0.527-0.102-0.737-0.306l-2.638-2.596c-0.422 0.306-0.872 0.535-1.35 0.688s-0.994 0.229-1.55 0.229z"></path>
</symbol>
<symbol id="icon-menu" viewBox="0 0 32 32">
<path d="M4.936 24.295c-0.321 0-0.59-0.11-0.808-0.329s-0.327-0.493-0.327-0.82c0-0.322 0.109-0.591 0.327-0.807s0.488-0.323 0.808-0.323h22.127c0.321 0 0.591 0.11 0.812 0.329s0.331 0.49 0.331 0.812c0 0.328-0.11 0.599-0.331 0.814s-0.492 0.323-0.812 0.323h-22.127zM4.936 17.136c-0.321 0-0.59-0.11-0.808-0.329s-0.327-0.49-0.327-0.812c0-0.322 0.109-0.591 0.327-0.806s0.488-0.323 0.808-0.323h22.127c0.321 0 0.591 0.11 0.812 0.329s0.331 0.49 0.331 0.812c0 0.322-0.11 0.591-0.331 0.806s-0.492 0.323-0.812 0.323h-22.127zM4.936 9.984c-0.321 0-0.59-0.11-0.808-0.329s-0.327-0.493-0.327-0.82c0-0.322 0.109-0.591 0.327-0.806s0.488-0.323 0.808-0.323h22.127c0.321 0 0.591 0.11 0.812 0.329s0.331 0.49 0.331 0.812c0 0.328-0.11 0.599-0.331 0.815s-0.492 0.323-0.812 0.323h-22.127z"></path>
</symbol>
<symbol id="icon-select_check_box" viewBox="0 0 32 32">
<path d="M6.072 28.199c-0.624 0-1.159-0.222-1.604-0.667s-0.667-0.98-0.667-1.604v-19.857c0-0.627 0.222-1.163 0.667-1.609s0.98-0.67 1.604-0.67h18.691c0.321 0 0.59 0.111 0.808 0.334s0.327 0.495 0.327 0.816c0 0.322-0.109 0.59-0.327 0.806s-0.487 0.323-0.808 0.323h-18.691v19.857h19.857v-11.090c0-0.321 0.11-0.59 0.329-0.808s0.49-0.327 0.812-0.327c0.322 0 0.592 0.109 0.81 0.327s0.328 0.487 0.328 0.808v11.090c0 0.624-0.223 1.159-0.67 1.604s-0.983 0.667-1.609 0.667h-19.857zM15.414 19.425l12.073-12.073c0.213-0.21 0.459-0.316 0.737-0.316s0.521 0.105 0.73 0.316c0.209 0.211 0.313 0.456 0.313 0.737s-0.103 0.52-0.308 0.719l-12.741 12.741c-0.23 0.226-0.499 0.34-0.806 0.34s-0.574-0.113-0.801-0.34l-5.865-5.865c-0.211-0.211-0.316-0.455-0.316-0.732s0.105-0.521 0.316-0.732 0.453-0.316 0.728-0.316c0.275 0 0.517 0.105 0.728 0.316l5.212 5.204z"></path>
</symbol>
<symbol id="icon-star_filled" viewBox="0 0 32 32">
<path d="M16.008 21.885l-5.639 4.296c-0.227 0.171-0.456 0.246-0.688 0.224s-0.447-0.097-0.646-0.224c-0.199-0.127-0.341-0.299-0.427-0.518s-0.093-0.463-0.021-0.734l2.152-7.007-5.531-3.979c-0.227-0.154-0.373-0.349-0.439-0.584s-0.061-0.457 0.017-0.667c0.077-0.204 0.203-0.388 0.377-0.551s0.405-0.245 0.692-0.245h6.858l2.193-7.307c0.072-0.276 0.215-0.483 0.427-0.622s0.435-0.207 0.667-0.207 0.454 0.069 0.667 0.207c0.213 0.138 0.358 0.345 0.435 0.622l2.185 7.307h6.866c0.282 0 0.509 0.082 0.684 0.245s0.3 0.347 0.377 0.551c0.077 0.21 0.083 0.432 0.017 0.667s-0.212 0.43-0.439 0.584l-5.531 3.979 2.152 6.999c0.072 0.276 0.065 0.522-0.021 0.738s-0.228 0.387-0.427 0.514c-0.199 0.132-0.413 0.209-0.643 0.232s-0.457-0.055-0.684-0.232l-5.631-4.289z"></path>
</symbol>
<symbol id="icon-star_half" viewBox="0 0 32 32">
<path d="M16 7.999v12.613l5.122 3.095-1.376-5.798 4.504-3.92-5.939-0.517-2.311-5.472zM16 23.257l-6.216 3.749c-0.21 0.127-0.428 0.184-0.654 0.17s-0.428-0.084-0.605-0.211c-0.177-0.127-0.308-0.291-0.394-0.493s-0.104-0.429-0.054-0.684l1.641-7.083-5.482-4.783c-0.199-0.171-0.321-0.365-0.365-0.58s-0.038-0.425 0.017-0.63c0.050-0.204 0.164-0.377 0.344-0.518s0.396-0.222 0.65-0.245l7.249-0.633 2.808-6.691c0.1-0.232 0.25-0.404 0.452-0.518s0.405-0.17 0.609-0.17c0.204 0 0.407 0.057 0.609 0.17s0.353 0.286 0.452 0.518l2.808 6.691 7.257 0.633c0.249 0.022 0.463 0.104 0.642 0.245s0.294 0.313 0.344 0.518c0.055 0.204 0.061 0.414 0.017 0.63s-0.165 0.409-0.365 0.58l-5.482 4.783 1.641 7.083c0.049 0.254 0.031 0.482-0.054 0.684s-0.217 0.366-0.394 0.493c-0.177 0.127-0.379 0.198-0.605 0.211s-0.445-0.043-0.654-0.17l-6.216-3.749z"></path>
</symbol>
<symbol id="icon-star_rate" viewBox="0 0 32 32">
<path d="M11.433 22.567l4.567-3.467 4.567 3.467-1.833-5.767 4.2-2.733h-5.033l-1.9-5.767-1.9 5.767h-5.033l4.2 2.733-1.833 5.767zM16.008 21.885l-5.639 4.296c-0.227 0.171-0.456 0.246-0.688 0.224s-0.447-0.097-0.646-0.224c-0.199-0.127-0.341-0.299-0.427-0.518s-0.093-0.463-0.021-0.734l2.152-7.007-5.531-3.979c-0.227-0.154-0.373-0.349-0.439-0.584s-0.061-0.457 0.017-0.667c0.077-0.204 0.203-0.388 0.377-0.551s0.405-0.245 0.692-0.245h6.858l2.193-7.307c0.072-0.276 0.215-0.483 0.427-0.622s0.435-0.207 0.667-0.207 0.454 0.069 0.667 0.207c0.213 0.138 0.358 0.345 0.435 0.622l2.185 7.307h6.866c0.282 0 0.509 0.082 0.684 0.245s0.3 0.347 0.377 0.551c0.077 0.21 0.083 0.432 0.017 0.667s-0.212 0.43-0.439 0.584l-5.531 3.979 2.152 6.999c0.072 0.276 0.065 0.522-0.021 0.738s-0.228 0.387-0.427 0.514c-0.199 0.132-0.413 0.209-0.643 0.232s-0.457-0.055-0.684-0.232l-5.631-4.289z"></path>
</symbol>
<symbol id="icon-X" viewBox="0 0 32 32">
<path d="M22.901 5.657h3.68l-8.040 9.037 9.459 12.297h-7.406l-5.801-7.458-6.637 7.458h-3.682l8.6-9.666-9.074-11.668h7.594l5.243 6.817 6.064-6.817zM21.61 24.824h2.039l-13.163-17.115h-2.188l13.312 17.115z"></path>
</symbol>
<symbol id="icon-Youtube" viewBox="0 0 32 32">
<path d="M28.79 9.604c-0.152-0.563-0.449-1.077-0.861-1.49s-0.925-0.711-1.489-0.864c-2.088-0.573-10.441-0.583-10.441-0.583s-8.352-0.009-10.441 0.539c-0.563 0.16-1.075 0.462-1.487 0.878s-0.711 0.929-0.867 1.493c-0.551 2.088-0.556 6.419-0.556 6.419s-0.005 4.352 0.541 6.419c0.307 1.143 1.207 2.045 2.351 2.353 2.109 0.573 10.44 0.583 10.44 0.583s8.353 0.009 10.441-0.537c0.563-0.153 1.077-0.45 1.49-0.862s0.712-0.925 0.866-1.488c0.552-2.087 0.556-6.416 0.556-6.416s0.027-4.353-0.543-6.441zM13.328 20.007l0.007-8 6.943 4.007-6.949 3.993z"></path>
</symbol>
</defs>
</svg>
